<?xml version="1.0" encoding="utf-8"?>
<!-- Generator: Adobe Illustrator 21.1.0, SVG Export Plug-In . SVG Version: 6.00 Build 0)  -->
<svg version="1.1" id="Layer_1" xmlns="http://www.w3.org/2000/svg" xmlns:xlink="http://www.w3.org/1999/xlink" x="0px" y="0px"
	 viewBox="0 0 322.4 409" style="enable-background:new 0 0 322.4 409;" xml:space="preserve">
<style type="text/css">
	.st0{enable-background:new    ;}
	.st1{fill:#FFFEF1;}
	.st2{fill:#672466;}
	.st3{fill:none;stroke:#672466;stroke-width:13;stroke-miterlimit:10;}
	.st4{fill:#843087;}
	.st5{fill:#D2A1A5;}
	.st6{fill:#EDB2B3;}
	.st7{fill:none;stroke:#843087;stroke-width:13;stroke-miterlimit:10;}
	.st8{fill:#9B3F97;}
	.st9{fill:#D24C51;}
</style>
<title>Asset 5</title>
<text transform="matrix(0.9999 1.221700e-02 -1.221700e-02 0.9999 -415.2833 307.3063)" class="st1" style="font-family:'ArialMT'; font-size:134.74px;">blab</text>
<text transform="matrix(0.9999 1.221700e-02 -1.221700e-02 0.9999 -165.242 310.3613)" class="st1" style="font-family:'ArialMT'; font-size:134.74px;">b</text>
<text transform="matrix(0.9999 1.221700e-02 -1.221700e-02 0.9999 -89.5176 311.2865)" class="st1" style="font-family:'ArialMT'; font-size:134.74px;">y</text>
<rect x="163.2" y="60.2" class="st2" width="17" height="39"/>
<ellipse class="st3" cx="168.7" cy="43.2" rx="24" ry="20.5"/>
<path class="st2" d="M166.4,96.9c20.8,0,39.7,4,58.5,17.9c11.3,8,32.1,23.9,52.9,65.6c15.1,27.8,30.2,78.1,30.2,101.4
	c0,45.7-17,63.6-17,63.6c-9.7,11.1-20.8,21.9-51,29.8s-53.4,8-73.6,8s-43.4,0-73.6-8s-46.7-25.1-51-29.8
	c-1.4-1.8-9.6-10.1-14.3-34.4c-1.8-9.6-2.7-19.4-2.7-29.2c0.1-6,0.7-11.9,1.9-17.8c4.5-25.6,16.4-61.6,28.4-83.6
	c20.8-41.8,41.5-57.7,52.9-65.6C126.8,100.9,145.6,96.9,166.4,96.9z"/>
<path class="st4" d="M152.5,96.9c18.8,0,36,3.7,53.1,16.5c10.3,7.3,29.1,22,48,60.4c13.7,25.6,27.4,71.9,27.4,93.4
	c0,42.1-15.4,58.6-15.4,58.6c-8.8,10.2-18.8,20.1-46.3,27.5s-48.5,7.3-66.8,7.3s-39.4,0-66.8-7.3s-43.8-24.4-46.3-27.5
	c-7.7-7.6-13.8-29.2-14.2-39.2c-1.8-28.3,11.7-87.9,26.2-112.8c18.9-38.4,37.7-53.1,48-60.4C116.5,100.6,133.6,96.9,152.5,96.9z"/>
<rect x="157.2" y="59.2" class="st4" width="17" height="39"/>
<path class="st5" d="M89.7,306.5c9.6,0,18.8-6.2,26-13.6c3.7-3.8,7-7.9,9.8-12.4c5.2-8.3,16.2-26,10.4-50.7
	c-5.8-24.7-30.1-28.6-46.2-28.6h0.5c-16.2,0-40.4,3.9-46.2,28.6s5.1,42.4,10.4,50.7c2.8,4.5,6.1,8.6,9.8,12.4
	c7.2,7.4,16.4,13.6,26,13.6"/>
<path class="st6" d="M89.3,307.2c8.7,0,16.9-4.8,23.4-10.6c3.3-2.9,6.3-6.1,8.8-9.6c4.7-6.4,14.6-20.2,9.4-39.3
	s-41.2-46.5-41.2-46.5c-8.4,0-26.2,2.5-36.4,11.7c-7.5,6.8-9.9,15.8-10.8,27.1c-2.7,18.9,12.8,43.9,15,47c2.6,3.5,5.5,6.7,8.8,9.6
	c6.5,5.8,14.7,10.6,23.4,10.6"/>
<circle class="st7" cx="164.2" cy="42.2" r="20.5"/>
<path class="st8" d="M101.2,114c-14.1,11.5-36.8,35.6-19.1,34.7c21.4-3.1,30-10.1,35.5-14.7c5.5-4.6,20.3-18,24.3-34
	C143.4,94.9,115.3,102.4,101.2,114z"/>
<path class="st9" d="M136.9,252.7c0,0-78.8,4.9-88.5,33.3s26.4,27.5,33.3,26.8C99.9,311.2,128.6,297,136.9,252.7z"/>
</svg>
